<svg width="555" height="289" viewBox="0 0 555 289" fill="none" xmlns="http://www.w3.org/2000/svg">
<rect width="555" height="289" fill="#DAE7FF"/>
<g clip-path="url(#clip0_4_398)">
<path d="M292.984 161.327C285.643 165.73 272.563 171.246 259.197 165.577L250.557 161.912L267.871 142.503C254.055 127.269 246.411 107.433 246.432 86.8671C246.453 66.301 254.138 46.4807 267.985 31.2751C281.833 16.0695 300.85 6.56987 321.324 4.63045C341.799 2.69103 362.261 8.45103 378.718 20.7862C395.174 33.1213 406.443 51.1462 410.325 71.3426C414.208 91.539 410.424 112.457 399.714 130.014C389.004 147.572 372.135 160.508 352.401 166.297C332.666 172.087 311.483 170.315 292.984 161.327ZM259.811 86.8207C259.772 96.3013 261.696 105.687 265.462 114.388C269.227 123.089 274.752 130.917 281.689 137.379L286.465 141.867L275.57 154.08C281.245 152.928 286.188 149.858 288.694 148.075L292.133 145.628L295.832 147.66C306.056 153.258 317.524 156.192 329.18 156.19C367.431 156.19 398.55 125.071 398.55 86.8208C398.55 48.5703 367.431 17.4512 329.18 17.4512C290.93 17.4512 259.811 48.5703 259.811 86.8207Z" fill="#3F3D56"/>
<path d="M253.085 86.8208C253.085 44.7946 287.154 10.7256 329.18 10.7256C371.206 10.7256 405.275 44.7946 405.275 86.8208C405.275 128.847 371.206 162.916 329.18 162.916C316.39 162.935 303.803 159.714 292.593 153.555C287.333 157.298 274.501 164.763 261.824 159.386L277.083 142.28C269.498 135.173 263.453 126.583 259.325 117.042C255.197 107.502 253.073 97.2158 253.085 86.8208Z" fill="#1376DA"/>
<path opacity="0.1" d="M392.312 86.9857C392.312 47.2264 361.818 14.595 322.943 11.1897C325.159 10.9956 327.401 10.8905 329.668 10.8905C371.694 10.8905 405.763 44.9595 405.763 86.9857C405.763 129.012 371.694 163.081 329.668 163.081C327.405 163.081 325.166 162.974 322.953 162.781C361.823 159.37 392.312 126.741 392.312 86.9857Z" fill="black"/>
<path d="M153.827 267.039C134.813 267.048 116.374 260.522 101.6 248.553C86.8256 236.585 76.614 219.902 72.6764 201.3C68.7389 182.698 71.3147 163.308 79.9721 146.38C88.6295 129.452 102.842 116.013 120.229 108.317C137.616 100.621 157.119 99.1344 175.471 104.107C193.823 109.08 209.908 120.209 221.031 135.63C232.154 151.052 237.638 169.827 236.565 188.811C235.491 207.794 227.926 225.832 215.136 239.901L232.45 259.31L223.81 262.975C210.444 268.644 197.364 263.127 190.023 258.725C178.74 264.194 166.365 267.037 153.827 267.039ZM153.827 114.849C115.577 114.849 84.4575 145.968 84.4575 184.219C84.4575 222.469 115.577 253.588 153.827 253.588C165.483 253.589 176.952 250.656 187.176 245.058L190.874 243.026L194.313 245.473C196.82 247.256 201.762 250.326 207.438 251.477L196.542 239.264L201.318 234.776C208.255 228.314 213.78 220.487 217.546 211.786C221.311 203.085 223.235 193.699 223.197 184.219C223.197 145.968 192.078 114.849 153.827 114.849Z" fill="#3F3D56"/>
<path d="M229.922 184.218C229.922 142.192 195.853 108.123 153.827 108.123C111.801 108.123 77.7318 142.192 77.7318 184.218C77.7318 226.245 111.801 260.314 153.827 260.314C166.617 260.332 179.204 257.112 190.414 250.953C195.674 254.695 208.507 262.16 221.183 256.783L205.924 239.678C213.509 232.57 219.554 223.98 223.682 214.44C227.81 204.9 229.934 194.613 229.922 184.218Z" fill="#1376DA"/>
<path opacity="0.1" d="M91.183 183.834C91.183 144.075 121.677 111.443 160.553 108.038C158.336 107.844 156.094 107.739 153.827 107.739C111.801 107.739 77.7319 141.808 77.7319 183.834C77.7319 225.86 111.801 259.929 153.827 259.929C156.091 259.929 158.329 259.823 160.542 259.629C121.672 256.219 91.183 223.59 91.183 183.834Z" fill="black"/>
<path d="M347.044 62.6454C342.065 54.2328 332.215 53.8408 332.215 53.8408C332.215 53.8408 322.617 52.6133 316.46 65.4258C310.72 77.3681 302.8 88.8987 315.184 91.6943L317.421 84.7317L318.807 92.2126C320.57 92.3394 322.339 92.3697 324.106 92.3032C337.369 91.875 350 92.4285 349.593 87.6692C349.052 81.3423 351.835 70.74 347.044 62.6454Z" fill="#2F2E41"/>
<path d="M314.477 136.319C314.331 137.244 314.119 138.158 313.842 139.053C313.531 139.929 313.05 140.739 312.765 141.624C311.857 144.445 313.116 147.591 315.126 149.769C316.869 151.65 319.12 152.986 321.606 153.617C323.436 154.008 325.303 154.204 327.175 154.202C332.35 154.377 337.659 154.534 342.563 152.871C344.113 152.332 345.61 151.653 347.034 150.84C347.484 150.625 347.881 150.313 348.195 149.926C348.523 149.359 348.669 148.705 348.613 148.052C348.602 145.858 348.157 143.675 348.263 141.484C348.321 140.27 348.549 139.057 348.437 137.847C348.282 136.472 347.706 135.179 346.788 134.145C345.87 133.11 344.655 132.384 343.309 132.067C341.918 131.768 340.475 131.931 339.058 132.067C335.382 132.421 331.689 132.586 327.996 132.562C324.222 132.538 320.471 131.962 316.716 131.902C315.606 131.884 315.628 132.226 315.275 133.301C314.949 134.29 314.683 135.298 314.477 136.319Z" fill="#2F2E41"/>
<path d="M325.187 82.1404C325.006 83.09 324.81 84.0743 324.239 84.8547C323.583 85.7525 322.512 86.2655 321.806 87.1248C320.743 88.4181 320.682 90.238 320.677 91.9122C320.673 93.4545 320.704 95.0996 321.565 96.3798C322.177 97.1751 322.936 97.8449 323.802 98.3526C327.028 100.526 330.513 102.739 334.402 102.811C336.013 102.84 337.741 102.424 338.801 101.21C339.259 100.64 339.619 99.9982 339.866 99.3102C340.861 96.8591 341.463 94.2668 341.652 91.6284C341.796 90.3881 341.68 89.1315 341.312 87.9382C340.84 86.621 339.885 85.5372 339.253 84.2884C338.507 82.8034 338.234 81.1253 338.471 79.4803C338.503 79.3645 338.493 79.2413 338.444 79.1318C338.392 79.0732 338.327 79.0274 338.255 78.998C338.182 78.9686 338.104 78.9564 338.026 78.9623L330.315 78.4072C329.597 78.3715 328.881 78.2897 328.174 78.1623C327.758 78.0778 326.66 77.4874 326.264 77.6444C325.53 77.935 325.337 81.353 325.187 82.1404Z" fill="#A0616A"/>
<path opacity="0.1" d="M325.187 82.3811C325.006 83.3307 324.81 84.315 324.239 85.0954C323.583 85.9932 322.512 86.5062 321.806 87.3655C320.743 88.6588 320.682 90.4787 320.677 92.1529C320.673 93.6952 320.704 95.3403 321.565 96.6205C322.177 97.4158 322.936 98.0856 323.802 98.5933C327.028 100.767 330.513 102.98 334.402 103.051C336.013 103.081 337.741 102.665 338.801 101.451C339.259 100.881 339.619 100.239 339.866 99.551C340.861 97.0998 341.463 94.5075 341.652 91.8691C341.796 90.6288 341.68 89.3722 341.312 88.1789C340.84 86.8617 339.885 85.778 339.253 84.5291C338.507 83.0441 338.234 81.366 338.471 79.721C338.503 79.6052 338.493 79.482 338.444 79.3726C338.392 79.314 338.327 79.2682 338.255 79.2388C338.182 79.2094 338.104 79.1971 338.026 79.2031L330.315 78.6479C329.596 78.6123 328.881 78.5305 328.174 78.403C327.758 78.3185 326.66 77.7281 326.264 77.8851C325.53 78.1757 325.337 81.5937 325.187 82.3811Z" fill="black"/>
<path d="M332.561 83.1744C338.809 83.1744 343.874 78.1094 343.874 71.8615C343.874 65.6136 338.809 60.5486 332.561 60.5486C326.313 60.5486 321.248 65.6136 321.248 71.8615C321.248 78.1094 326.313 83.1744 332.561 83.1744Z" fill="#A0616A"/>
<path d="M326.774 97.1997C327.333 97.8469 328.006 98.3852 328.761 98.7875C329.547 99.1126 330.392 99.2735 331.243 99.2602C333.282 99.3175 335.493 98.9439 336.912 97.4778C338.74 95.5879 338.68 92.5398 340.114 90.335C340.229 90.1351 340.387 89.9627 340.575 89.8298C340.816 89.6989 341.088 89.6365 341.361 89.6492C343.171 89.6323 344.748 90.8064 346.171 91.9253C346.841 92.3863 347.416 92.9718 347.865 93.6501C348.146 94.1992 348.339 94.7893 348.436 95.3986C349.142 98.8462 349.371 102.371 349.598 105.883C349.723 107.823 349.848 109.764 349.839 111.708C349.808 118.112 348.32 124.409 346.84 130.64C346.649 131.442 346.388 132.34 345.658 132.724C345.332 132.871 344.983 132.956 344.627 132.976C340.387 133.474 336.139 133.972 331.871 134.038C330.205 134.064 328.54 134.023 326.876 133.917C326.589 133.913 326.305 133.864 326.034 133.771C325.667 133.594 325.351 133.326 325.117 132.992C322.808 130.082 322.672 126.06 322.687 122.346C322.723 113.266 323.047 104.192 323.66 95.1265C323.711 94.3782 323.722 93.4695 323.183 92.8808C324.233 94.4367 325.436 95.8836 326.774 97.1997Z" fill="white"/>
<path d="M324.377 84.1372C323.995 84.8289 321.178 86.5463 320.635 87.1196C317.596 90.3224 312.05 90.2022 309.271 93.6327C308.294 94.8396 307.786 96.3561 307.412 97.8638C306.884 99.9961 306.601 102.322 307.487 104.332C308.338 106.267 310.131 107.604 311.349 109.333C312.685 111.23 313.286 113.534 313.862 115.782C314.287 117.443 314.716 119.144 314.551 120.85C314.362 122.789 313.424 124.565 312.87 126.433C312.316 128.301 312.22 130.526 313.501 131.994C314.442 133.072 315.919 133.5 317.33 133.74C319.137 134.012 320.96 134.17 322.787 134.215C324.4 134.287 326.178 134.3 327.418 133.266C328.397 132.45 328.822 131.126 328.877 129.853C328.932 128.58 328.667 127.319 328.501 126.056C328.329 124.746 328.263 123.425 328.208 122.106C327.96 116.185 327.926 110.26 328.106 104.332C328.197 103.099 328.137 101.861 327.926 100.643C327.581 99.0573 326.723 97.64 326.008 96.1829C324.579 93.4384 323.932 90.3539 324.137 87.2663C324.353 84.0933 325.737 81.676 324.377 84.1372Z" fill="white"/>
<path d="M340.264 84.3779C340.846 84.9761 342.823 85.1733 343.564 85.5585C344.26 85.8802 344.987 86.1318 345.733 86.3095C348.433 87.0886 351.002 88.2675 353.353 89.8071C353.842 90.0929 354.274 90.466 354.628 90.9078C355 91.5142 355.241 92.1927 355.333 92.8985C355.695 94.6942 356.059 96.5115 355.978 98.3415C355.892 100.284 355.306 102.166 354.726 104.021L352.557 110.956C350.938 116.132 349.309 121.359 348.853 126.763C348.601 129.758 348.713 132.773 349.187 135.741C349.231 135.885 349.244 136.038 349.226 136.187C349.207 136.337 349.156 136.482 349.077 136.611C348.934 136.752 348.746 136.838 348.546 136.855C347.499 137.019 346.486 136.485 345.538 136.012C342.639 134.57 339.545 133.557 336.354 133.007C337.601 131.205 338.563 129.222 339.206 127.127C339.572 125.797 339.859 124.447 340.068 123.083L341.077 117.247C341.488 115.114 341.777 112.96 341.943 110.794C342.019 109.981 341.972 109.161 341.802 108.363C341.57 107.603 341.261 106.868 340.881 106.17C339.218 102.711 338.437 98.7642 339.092 94.9824C339.378 93.3274 339.935 91.6701 339.703 90.0067C339.479 88.4073 339.711 87.1643 339.301 85.5814C337.616 79.0825 339.169 83.2526 340.264 84.3779Z" fill="white"/>
<path d="M309.243 99.1016C308.484 100.675 307.217 102.015 306.786 103.707C306.618 104.498 306.546 105.306 306.571 106.114C306.497 107.332 306.617 108.554 306.929 109.734C307.169 110.48 307.561 111.168 307.843 111.9C308.236 112.922 308.412 114.015 308.358 115.109C308.281 116.624 307.767 118.095 307.726 119.612C307.663 121.997 308.766 124.239 309.843 126.368C310.114 125.697 310.528 125.094 311.057 124.6C311.585 124.105 312.216 123.733 312.903 123.508C313.591 123.282 314.319 123.21 315.038 123.296C315.756 123.382 316.448 123.624 317.063 124.005C317.309 123.702 317.426 123.314 317.388 122.925C317.468 120.158 317.545 117.391 317.618 114.624C317.735 110.344 317.846 106.007 316.861 101.84C316.417 99.9588 315.725 98.0848 314.457 96.6256C313.79 95.8573 311.523 93.8335 310.427 94.6942C309.934 95.0813 310.05 96.1349 309.971 96.6685C309.854 97.5119 309.608 98.3323 309.243 99.1016Z" fill="white"/>
<path d="M356.2 94.5682C356.505 95.7026 356.635 96.8768 356.587 98.0505C356.601 100.443 356.57 102.834 356.492 105.226C356.504 106.453 356.347 107.675 356.026 108.859C355.781 109.629 355.403 110.351 355.15 111.118C354.392 113.417 354.806 115.911 354.871 118.331C354.917 119.115 354.85 119.9 354.673 120.665C354.273 122.165 353.198 123.377 352.448 124.737C351.736 126.028 351.306 127.475 350.455 128.68C349.605 129.884 348.132 130.839 346.704 130.469C345.623 130.189 344.854 129.231 344.322 128.249C343.162 126.088 342.766 123.599 343.197 121.184C343.73 118.247 345.456 115.641 346.078 112.721C346.932 108.712 345.634 104.574 345.672 100.474C345.655 99.8317 345.742 99.1905 345.93 98.5759C346.257 97.6395 346.958 96.8917 347.605 96.1407C348.415 95.2021 349.166 94.2155 349.857 93.1862C350.32 92.4948 350.95 90.7165 351.772 90.5686C353.607 90.2385 355.744 93.1504 356.2 94.5682Z" fill="white"/>
<path d="M299.72 134.535C298.705 134.28 297.66 134.169 296.614 134.205C295.515 134.266 294.442 134.56 293.466 135.067C292.489 135.575 291.632 136.285 290.951 137.149C290.271 138.014 289.782 139.013 289.517 140.081C289.252 141.15 289.218 142.262 289.417 143.344C289.67 144.517 290.084 145.648 290.647 146.708C291.471 148.379 292.459 150.047 293.984 151.118C294.903 151.707 295.892 152.178 296.929 152.52L304.961 155.546C306.142 155.991 307.324 156.436 308.517 156.849C314.512 158.921 320.762 160.164 327.094 160.542C329.021 160.723 330.963 160.624 332.862 160.25C333.321 160.19 333.741 159.963 334.043 159.612C334.196 159.345 334.286 159.047 334.307 158.74L334.801 155.28C334.912 154.798 334.897 154.296 334.759 153.821C334.533 153.24 333.965 152.874 333.424 152.563C328.144 149.53 321.978 147.857 317.534 143.695C316.487 142.715 315.612 141.162 314.341 140.496C312.899 139.741 311.201 139.31 309.711 138.615C306.454 137.094 303.251 135.347 299.72 134.535Z" fill="#2F2E41"/>
<path opacity="0.1" d="M307.739 139.2C310.578 140.089 322.564 146.252 324.618 148.404C324.343 148.503 315 143.267 314.719 143.183C312.149 142.477 309.633 141.591 307.188 140.529C306.701 140.304 304.025 139.246 304.146 138.631C304.283 137.938 307.235 139.042 307.739 139.2Z" fill="black"/>
<path d="M343.156 162.336C343.317 162.348 343.477 162.301 343.606 162.204C343.663 162.131 343.704 162.048 343.729 161.959C343.753 161.87 343.759 161.777 343.747 161.686L343.734 156.972C342.378 156.327 340.862 156.12 339.374 155.921L332.43 154.992C332.589 155.014 331.344 157.983 331.535 158.38C331.872 159.078 334.443 159.698 335.169 160.028C337.692 161.174 340.314 162.435 343.156 162.336Z" fill="#A0616A"/>
<path d="M321.37 156.956C320.059 157.165 318.596 157.35 317.746 158.37C316.67 159.664 317.128 161.594 317.642 163.197C317.673 163.404 317.746 163.602 317.855 163.781C317.964 163.959 318.108 164.114 318.279 164.236C318.449 164.358 318.642 164.444 318.846 164.49C319.05 164.536 319.262 164.54 319.468 164.503C320.663 164.579 321.936 164.638 322.98 164.051C323.454 163.739 323.909 163.4 324.345 163.037C325.115 162.525 325.962 162.137 326.854 161.89C328.493 161.374 330.18 161.027 331.89 160.852C332.564 160.822 333.23 160.704 333.874 160.502C334.195 160.399 334.489 160.223 334.731 159.987C334.973 159.752 335.158 159.464 335.271 159.146C335.513 158.289 335.015 157.416 334.538 156.665C333.988 155.681 333.273 154.798 332.426 154.055C331.132 153.05 330.492 153.821 329.189 154.464C326.722 155.682 324.086 156.522 321.37 156.956Z" fill="#A0616A"/>
<path d="M317.944 158.137L309.619 155.677C308.62 155.329 307.577 155.127 306.521 155.076C305.992 155.054 305.465 155.146 304.974 155.344C304.484 155.543 304.041 155.844 303.676 156.227C303.03 156.984 302.846 158.02 302.685 159.002L302.34 161.103C302.111 162.163 302.046 163.251 302.148 164.33C302.203 164.87 302.381 165.389 302.667 165.85C302.954 166.311 303.342 166.7 303.802 166.988C304.954 167.617 306.365 167.31 307.651 167.047C310.248 166.516 312.89 166.233 315.54 166.201C316.537 166.189 317.582 166.201 318.462 165.735C318.973 165.432 319.403 165.009 319.713 164.502C320.023 163.995 320.205 163.42 320.243 162.827C320.406 161.033 319.808 158.688 317.944 158.137Z" fill="#2F2E41"/>
<path d="M346.429 155.993C347.508 155.804 348.46 155.19 349.494 154.828C350.95 154.319 352.527 154.319 354.069 154.324C354.636 154.273 355.206 154.387 355.71 154.653C356.389 155.105 356.563 156.01 356.678 156.818L357.375 161.692C357.562 162.601 357.581 163.537 357.432 164.453C357.228 165.357 356.612 166.227 355.716 166.46C354.627 166.743 353.56 166.048 352.532 165.591C349.963 164.45 346.977 164.741 344.298 163.888C344.042 163.837 343.8 163.732 343.588 163.58C343.375 163.428 343.198 163.233 343.066 163.007C342.975 162.736 342.942 162.449 342.97 162.165C343.016 160.598 342.686 158.459 343.157 156.961C343.582 155.615 345.224 155.993 346.429 155.993Z" fill="#2F2E41"/>
<path d="M364.046 132.574C365.709 132.156 367.433 132.039 369.138 132.226C370.5 132.376 371.902 132.754 372.896 133.697C374.106 134.844 374.495 136.617 374.527 138.284C374.58 141.604 373.479 144.839 371.412 147.437C370.907 148.094 370.307 148.672 369.631 149.152C368.902 149.608 368.125 149.982 367.314 150.268L349.327 157.363C344.595 159.229 339.846 161.101 334.911 162.332C334.776 162.397 334.629 162.434 334.479 162.442C334.33 162.45 334.18 162.427 334.039 162.376C333.898 162.325 333.769 162.246 333.659 162.145C333.549 162.043 333.461 161.92 333.399 161.784C331.823 159.532 330.501 157.114 329.456 154.572C329.407 154.512 329.373 154.44 329.357 154.364C329.341 154.288 329.344 154.208 329.365 154.133C329.386 154.058 329.425 153.989 329.478 153.932C329.531 153.875 329.598 153.832 329.671 153.806L342.394 146.496C343.326 146.01 344.196 145.41 344.983 144.712C345.533 144.179 345.983 143.552 346.312 142.861C346.576 142.31 346.601 141.01 346.938 140.603C347.267 140.205 348.396 140.173 348.917 140.016C349.652 139.791 350.371 139.519 351.071 139.202C353.917 137.928 356.451 136.079 359.18 134.588C360.71 133.713 362.345 133.036 364.046 132.574Z" fill="#2F2E41"/>
<path opacity="0.1" d="M356.833 138.032C354.647 139.674 351.817 141.183 349.651 142.868C348.912 143.443 336.587 150.372 336.412 151.293C338.434 151.633 351.308 142.627 353.15 141.728C354.992 140.829 356.625 139.562 358.243 138.304C358.655 137.983 360.402 137.02 359.219 136.661C358.552 136.46 357.325 137.704 356.833 138.032Z" fill="black"/>
<path d="M341.794 84.5369H322.607C321.827 84.5369 321.08 84.8466 320.529 85.3978C319.977 85.949 319.668 86.6966 319.668 87.4761V88.5524H319.459V90.9594H319.668V92.6443H319.459V94.0885H319.668V111.849C319.668 112.628 319.977 113.376 320.529 113.927C321.08 114.478 321.827 114.788 322.607 114.788H341.794C342.573 114.788 343.321 114.478 343.872 113.927C344.423 113.376 344.733 112.628 344.733 111.849V87.4761C344.733 86.6965 344.423 85.949 343.872 85.3978C343.321 84.8466 342.573 84.5369 341.794 84.5369Z" fill="#D0CDE1"/>
<path d="M344.843 61.8346L335.112 56.737L321.673 58.8224L318.893 71.1026L325.814 70.8361L327.747 66.3247V70.7621L330.941 70.6393L332.794 63.4562L333.953 71.1026L345.306 70.8707L344.843 61.8346Z" fill="#2F2E41"/>
<path d="M311.788 130.983C312.229 131.731 312.854 132.354 313.605 132.79C314.097 133.015 314.635 133.124 315.176 133.11C315.717 133.095 316.248 132.957 316.728 132.706C317.686 132.193 318.47 131.406 318.981 130.447C320.039 128.579 320.258 126.345 320.126 124.202C319.994 122.06 319.536 119.951 319.334 117.814C319.187 116.261 319.175 114.698 319.163 113.138C319.126 112.81 319.195 112.479 319.359 112.193C319.642 111.911 320.008 111.729 320.403 111.672C322.537 111.037 323.954 109.037 324.97 107.055C325.648 105.732 326.238 104.286 326.107 102.805C325.976 101.324 324.912 99.8315 323.432 99.6804C322.213 99.5558 321.087 100.33 320.207 101.184C317.988 103.351 316.562 106.201 316.158 109.276C315.965 110.782 316.02 112.329 315.611 113.791C314.736 116.913 312 118.827 310.636 121.636C309.134 124.731 309.963 128.244 311.788 130.983Z" fill="#A0616A"/>
<path d="M352.056 119.057C351.745 119.781 351.292 120.435 350.724 120.981C350.155 121.527 349.484 121.954 348.748 122.236C347.833 122.603 346.824 122.665 345.872 122.412C345.399 122.281 344.964 122.043 344.598 121.716C344.233 121.389 343.948 120.983 343.765 120.528C343.619 120.07 343.539 119.593 343.528 119.112C343.391 117.007 343.444 114.838 344.208 112.872C344.503 112.114 344.901 111.394 345.134 110.615C345.362 109.714 345.479 108.789 345.482 107.86L345.733 102.117C345.775 101.7 345.746 101.279 345.648 100.871C345.397 100.04 344.621 99.5 343.908 99.0044C342.187 97.8074 340.486 96.4107 339.652 94.4873C339.365 93.9082 339.263 93.2554 339.358 92.6163C339.593 91.4758 340.744 90.7374 341.882 90.4886C342.626 90.3259 343.396 90.3155 344.144 90.4581C344.893 90.6007 345.605 90.8933 346.237 91.3184C346.869 91.7434 347.409 92.2921 347.824 92.9314C348.238 93.5706 348.519 94.2871 348.65 95.0379C348.762 95.686 348.761 96.3481 348.827 97.0027C348.966 98.3912 349.407 99.7297 349.683 101.098C350.362 104.467 350.01 107.951 350.682 111.32C351.244 114.137 353.361 115.975 352.056 119.057Z" fill="#A0616A"/>
<path d="M332.457 97.4583C333.786 97.4583 334.864 96.3806 334.864 95.0513C334.864 93.7219 333.786 92.6443 332.457 92.6443C331.128 92.6443 330.05 93.7219 330.05 95.0513C330.05 96.3806 331.128 97.4583 332.457 97.4583Z" fill="#1376DA"/>
<path d="M71.1011 181.559C75.0225 181.559 78.2015 178.38 78.2015 174.459C78.2015 170.538 75.0225 167.359 71.1011 167.359C67.1797 167.359 64.0008 170.538 64.0008 174.459C64.0008 178.38 67.1797 181.559 71.1011 181.559Z" fill="#2F2E41"/>
<path d="M96.8387 195.538L93.2624 192.062L86.0809 194.292L86.7707 202.608L101.537 201.922L97.0005 195.758L96.8387 195.538Z" fill="#FBBEBE"/>
<path d="M89.0169 195.466C95.3568 195.466 100.496 190.327 100.496 183.987C100.496 177.647 95.3568 172.508 89.0169 172.508C82.6771 172.508 77.5376 177.647 77.5376 183.987C77.5376 190.327 82.6771 195.466 89.0169 195.466Z" fill="#FBBEBE"/>
<path d="M160.281 210.272C160.281 210.272 174.384 234.507 177.74 238.146C179.336 239.936 181.037 241.631 182.833 243.221C182.833 243.221 181.254 248.455 178.742 248.268C177.309 248.182 175.905 247.835 174.596 247.246C174.596 247.246 173.475 244.339 171.518 243.064C169.562 241.789 153.578 226.064 153.952 221.038C154.325 216.012 160.281 210.272 160.281 210.272Z" fill="#2F2E41"/>
<path d="M110.058 244.857C110.058 244.857 125.094 256.528 145.529 245.561L147.29 244.265C147.29 244.265 144.318 250.951 144.043 252.764C143.723 254.865 135.985 267.177 134.723 267.767C133.46 268.357 133.182 268.901 133.182 268.901L138.54 274.799L140.521 273.341C140.521 273.341 148.247 262.396 150.506 260.393C152.765 258.391 163.531 237.743 163.531 237.743C163.531 237.743 167.646 229.964 157.375 229.378C147.103 228.793 142.376 231.593 142.376 231.593L124.146 234.489L110.058 244.857Z" fill="#2F2E41"/>
<path d="M183.007 242.075L190.612 247.337C190.612 247.337 200.315 250.377 194.338 252.4C188.362 254.423 172.611 255.155 172.254 252.364C171.896 249.572 172.875 245.179 173.661 245.419C174.447 245.66 179.9 247.076 183.007 242.075Z" fill="#2F2E41"/>
<path d="M141.194 271.533L142.602 279.263C142.602 279.263 146.605 286.918 141.799 284.543C136.993 282.168 127.091 273.145 128.554 271.254C130.016 269.363 133.243 267.311 133.571 267.928C133.898 268.544 136.324 272.671 141.194 271.533Z" fill="#2F2E41"/>
<path d="M126.692 237.027C126.692 237.027 116.471 248.96 110.265 246.061C104.06 243.162 78.6716 209.586 81.5705 203.38C84.4694 197.175 85.4414 198.496 85.4414 198.496L98.5502 199.708L94.7784 193.66C94.7784 193.66 96.5395 192.364 98.2176 194.184C99.8957 196.003 106.633 200.547 108.98 206.964C111.327 213.381 118.218 213.061 118.218 213.061L126.692 237.027Z" fill="white"/>
<path d="M167.97 212.419L150.251 231.227L134.379 203.204L149.468 184.973L167.97 212.419Z" fill="#3F3D56"/>
<path d="M166.632 212.215L150.629 228.743L136.128 203.274L149.427 186.531L166.632 212.215Z" fill="white"/>
<path d="M149.383 230.508L150.251 231.227L149.695 232.315L124.919 239.689L124.685 238.84L125.812 237.675L149.383 230.508Z" fill="#B3B3B3"/>
<path d="M150.471 231.065L124.815 239.087L109.176 209.535L134.379 203.204L150.471 231.065Z" fill="#D0CDE1"/>
<path d="M148.54 227.057L147.439 227.867L135.223 206.655L136.485 206.065L148.54 227.057Z" fill="#3F3D56"/>
<path d="M146.014 228.236L135.161 231.473L122.841 209.659L133.578 207.187L146.014 228.236Z" fill="#3F3D56"/>
<path d="M115.439 212.052L117.686 211.416C117.686 211.416 130.218 209.999 130.4 213.937C130.583 217.874 116.004 216.047 116.004 216.047L114.06 213.406L115.439 212.052Z" fill="#FBBEBE"/>
<path d="M126.43 229.754L129.558 228.47C129.558 228.47 138.999 224.237 136.291 221.479C133.582 218.721 125.23 223.511 125.23 223.511L123.631 225.027L126.43 229.754Z" fill="#FBBEBE"/>
<path d="M123.643 223.66C123.643 223.66 128.736 228.736 127.577 229.928C126.418 231.12 107.416 246.801 102.706 241.784C97.9953 236.766 75.0456 211.576 83.9757 209.415C92.9058 207.255 95.2652 212.306 95.2652 212.306L107.054 232.475L123.643 223.66Z" fill="white"/>
<path d="M108.395 208.243L116.76 211.08L116.623 217.119L107.776 216.164L108.395 208.243Z" fill="white"/>
<path opacity="0.2" d="M115.934 226.788L106.921 232.064L96.6238 216.227L106.564 229.273L115.934 226.788Z" fill="black"/>
<path d="M83.9783 194.325C91.5258 194.325 97.6442 188.207 97.6442 180.659C97.6442 173.112 91.5258 166.994 83.9783 166.994C76.4309 166.994 70.3125 173.112 70.3125 180.659C70.3125 188.207 76.4309 194.325 83.9783 194.325Z" fill="#2F2E41"/>
<path d="M157.818 213.611L148.249 199.614L152.306 194.592L162.248 208.994L157.818 213.611Z" fill="#1376DA"/>
<path d="M157.548 219.239L142.981 198.061L143.699 197.193L158.199 218.421L157.548 219.239Z" fill="#E6E6E6"/>
<path d="M155.671 221.3L141.104 200.121L141.822 199.253L156.322 220.482L155.671 221.3Z" fill="#E6E6E6"/>
<path d="M154.072 222.816L139.505 201.637L140.223 200.769L154.723 221.998L154.072 222.816Z" fill="#E6E6E6"/>
<path d="M90.0301 171.536H94.2576C96.3981 171.536 98.4509 172.386 99.9644 173.9C101.478 175.413 102.328 177.466 102.328 179.607H90.0301V171.536Z" fill="#2F2E41"/>
<path d="M148.264 166.4L147.497 166.343C147.468 166.741 147.446 167.142 147.421 167.542L143.981 167.427L147.589 174.189L151.642 167.683L148.189 167.568C148.214 167.178 148.235 166.788 148.264 166.4Z" fill="#3F3D56"/>
<path d="M168.441 111.282L169.052 111.749C169.968 110.548 170.925 109.35 171.897 108.187L171.307 107.694C170.328 108.866 169.364 110.073 168.441 111.282Z" fill="#3F3D56"/>
<path d="M174.328 104.236L174.896 104.754C175.916 103.637 176.974 102.528 178.042 101.457L177.498 100.915C176.422 101.993 175.356 103.111 174.328 104.236Z" fill="#3F3D56"/>
<path d="M180.81 97.7362L181.33 98.3026C182.445 97.2785 183.597 96.2671 184.752 95.2961L184.258 94.7076C183.094 95.6857 181.934 96.7048 180.81 97.7362Z" fill="#3F3D56"/>
<path d="M163.194 118.823L163.844 119.233C164.652 117.955 165.5 116.676 166.365 115.433L165.734 114.994C164.863 116.247 164.008 117.535 163.194 118.823Z" fill="#3F3D56"/>
<path d="M187.835 91.8339L188.303 92.4434C189.504 91.5212 190.74 90.6152 191.975 89.7505L191.535 89.1207C190.29 89.992 189.045 90.9048 187.835 91.8339Z" fill="#3F3D56"/>
<path d="M158.633 126.801L159.317 127.152C160.009 125.805 160.741 124.456 161.493 123.142L160.826 122.76C160.068 124.084 159.331 125.444 158.633 126.801Z" fill="#3F3D56"/>
<path d="M151.219 148.436L150.475 148.244C150.095 149.719 149.744 151.223 149.43 152.714L150.182 152.873C150.494 151.393 150.843 149.9 151.219 148.436Z" fill="#3F3D56"/>
<path d="M195.349 86.5743L195.762 87.2228C197.036 86.4121 198.345 85.6189 199.655 84.8651L199.271 84.1989C197.952 84.9585 196.632 85.7576 195.349 86.5743Z" fill="#3F3D56"/>
<path d="M149.343 157.351L148.585 157.227C148.338 158.727 148.121 160.256 147.94 161.771L148.704 161.862C148.883 160.359 149.098 158.841 149.343 157.351Z" fill="#3F3D56"/>
<path d="M154.797 135.156L155.509 135.445C156.079 134.043 156.688 132.633 157.321 131.256L156.622 130.935C155.985 132.323 155.371 133.743 154.797 135.156Z" fill="#3F3D56"/>
<path d="M151.718 143.825L152.453 144.05C152.896 142.599 153.378 141.14 153.885 139.713L153.161 139.456C152.65 140.894 152.165 142.364 151.718 143.825Z" fill="#3F3D56"/>
<path d="M247.344 71.254C248.851 71.2019 250.385 71.181 251.903 71.1953L251.909 70.4267C250.381 70.4124 248.835 70.4332 247.318 70.4858L247.344 71.254Z" fill="#3F3D56"/>
<path d="M203.294 82.0003L203.647 82.6827C204.99 81.9872 206.364 81.3133 207.732 80.6796L207.409 79.9823C206.03 80.6207 204.646 81.2996 203.294 82.0003Z" fill="#3F3D56"/>
<path d="M265.532 72.2124C267.031 72.4247 268.544 72.6731 270.03 72.951L270.171 72.1955C268.675 71.9156 267.15 71.665 265.639 71.4513L265.532 72.2124Z" fill="#3F3D56"/>
<path d="M274.491 73.8885C275.962 74.2323 277.448 74.6144 278.905 75.024L279.113 74.2839C277.645 73.8712 276.149 73.4865 274.665 73.1401L274.491 73.8885Z" fill="#3F3D56"/>
<path d="M283.263 76.3551C284.699 76.8286 286.144 77.3412 287.559 77.8791L287.832 77.1607C286.406 76.6188 284.95 76.1021 283.504 75.6251L283.263 76.3551Z" fill="#3F3D56"/>
<path d="M256.459 71.3349C257.973 71.4143 259.502 71.5284 261.006 71.6736L261.08 70.9087C259.565 70.7622 258.024 70.6473 256.5 70.5674L256.459 71.3349Z" fill="#3F3D56"/>
<path d="M238.167 71.2049L238.261 71.9679C239.759 71.7836 241.284 71.6299 242.794 71.5113L242.734 70.7449C241.212 70.8645 239.676 71.0193 238.167 71.2049Z" fill="#3F3D56"/>
<path d="M220.236 75.0503L220.463 75.7844C221.908 75.3373 223.382 74.9165 224.845 74.5339L224.65 73.7904C223.176 74.1757 221.691 74.5996 220.236 75.0503Z" fill="#3F3D56"/>
<path d="M211.607 78.1494L211.899 78.8606C213.297 78.2872 214.724 77.7383 216.142 77.2288L215.882 76.5056C214.453 77.0186 213.015 77.5718 211.607 78.1494Z" fill="#3F3D56"/>
<path d="M229.116 72.7282L229.277 73.48C230.754 73.1634 232.26 72.8754 233.753 72.6241L233.625 71.866C232.121 72.1193 230.604 72.4094 229.116 72.7282Z" fill="#3F3D56"/>
<path d="M299.028 82.6314L294.732 76.2836L293.222 79.3925C292.856 79.2293 292.493 79.0625 292.128 78.9044L291.822 79.6099C292.179 79.7643 292.531 79.9261 292.886 80.0843L291.383 83.1784L299.028 82.6314Z" fill="#3F3D56"/>
</g>
<defs>
<clipPath id="clip0_4_398">
<rect width="348.001" height="281" fill="white" transform="translate(64 4)"/>
</clipPath>
</defs>
</svg>
